<svg xmlns="http://www.w3.org/2000/svg" x="0px" y="0px" data-name="Layer 2" viewBox="0 0 100 125">
    <title>
        industry
    </title>
    <path d="M84.45,39.12a1,1,0,0,0-1.06.12L80,42l-.83-17.47v0l-.3-6.44a1,1,0,0,0-1-.95H73.21a1,1,0,0,0-1,.95L70.7,49.59,62.35,56.4l0-16.38a1,1,0,0,0-1.63-.78l-21,17.16V40a1,1,0,0,0-.57-.91,1,1,0,0,0-1.06.13L15.34,57.73a1,1,0,0,0-.36.77V81.88a1,1,0,0,0,1,1H84a1,1,0,0,0,1-1L85,40A1,1,0,0,0,84.45,39.12Zm-7.56-20,.21,4.41H74l.21-4.41Zm-3,6.41H77.2l.86,18.06-5.28,4.3ZM43.53,80.88V72.26H56.42v8.62Zm39.44,0H58.42V71.26a1,1,0,0,0-1-1H42.53a1,1,0,0,0-1,1v9.62H17V59L37.64,42.12V58.5a1,1,0,0,0,.57.9,1,1,0,0,0,1.06-.12l21-17.16,0,16.38a1,1,0,0,0,.57.91A1,1,0,0,0,62,59.28L83,42.13Z"/>
    <path d="M64.48,67.49h4.14a1,1,0,0,0,1-1V62.36a1,1,0,0,0-1-1H64.48a1,1,0,0,0-1,1v4.13A1,1,0,0,0,64.48,67.49Zm1-4.13h2.14v2.13H65.48Z"/>
    <path d="M74.74,67.49h4.14a1,1,0,0,0,1-1V62.36a1,1,0,0,0-1-1H74.74a1,1,0,0,0-1,1v4.13A1,1,0,0,0,74.74,67.49Zm1-4.13h2.14v2.13H75.74Z"/>
    <path d="M31.42,67.49h4.14a1,1,0,0,0,1-1V62.36a1,1,0,0,0-1-1H31.42a1,1,0,0,0-1,1v4.13A1,1,0,0,0,31.42,67.49Zm1-4.13h2.14v2.13H32.42Z"/>
    <path d="M21.16,67.49H25.3a1,1,0,0,0,1-1V62.36a1,1,0,0,0-1-1H21.16a1,1,0,0,0-1,1v4.13A1,1,0,0,0,21.16,67.49Zm1-4.13H24.3v2.13H22.16Z"/>
    <path d="M57.2,61.36H53.06a1,1,0,0,0-1,1v4.13a1,1,0,0,0,1,1H57.2a1,1,0,0,0,1-1V62.36A1,1,0,0,0,57.2,61.36Zm-1,4.13H54.06V63.36H56.2Z"/>
    <path d="M46.94,61.36H42.8a1,1,0,0,0-1,1v4.13a1,1,0,0,0,1,1h4.14a1,1,0,0,0,1-1V62.36A1,1,0,0,0,46.94,61.36Zm-1,4.13H43.8V63.36h2.14Z"/>
    <path d="M68.65,70.26H64.51a1,1,0,0,0-1,1v4.12a1,1,0,0,0,1,1h4.14a1,1,0,0,0,1-1V71.26A1,1,0,0,0,68.65,70.26Zm-1,4.12H65.51V72.26h2.14Z"/>
    <path d="M78.91,70.26H74.76a1,1,0,0,0-1,1v4.12a1,1,0,0,0,1,1h4.15a1,1,0,0,0,1-1V71.26A1,1,0,0,0,78.91,70.26Zm-1,4.12H75.76V72.26h2.15Z"/>
    <path d="M35.58,70.26H31.44a1,1,0,0,0-1,1v4.12a1,1,0,0,0,1,1h4.14a1,1,0,0,0,1-1V71.26A1,1,0,0,0,35.58,70.26Zm-1,4.12H32.44V72.26h2.14Z"/>
    <path d="M25.33,70.26H21.19a1,1,0,0,0-1,1v4.12a1,1,0,0,0,1,1h4.14a1,1,0,0,0,1-1V71.26A1,1,0,0,0,25.33,70.26Zm-1,4.12H22.19V72.26h2.14Z"/>
    <path d="M75,14.9a3.31,3.31,0,0,1-2.58-1.32c-.45-.49-.65-.68-1.12-.68s-.67.19-1.12.68a3.2,3.2,0,0,1-5.18,0c-.44-.49-.65-.68-1.12-.68s-.67.19-1.12.68a3.2,3.2,0,0,1-5.18,0c-.45-.49-.65-.68-1.12-.68v-2A3.28,3.28,0,0,1,59,12.22c.46.48.66.68,1.13.68s.67-.2,1.12-.68a3.2,3.2,0,0,1,5.18,0c.45.48.65.68,1.12.68s.67-.2,1.12-.68a3.2,3.2,0,0,1,5.18,0c.44.48.64.68,1.11.68Z"/>
</svg>
