<svg xmlns="http://www.w3.org/2000/svg" xmlns:xlink="http://www.w3.org/1999/xlink" x="0px" y="0px" enable-background="new 0 0 100 100" version="1.1" viewBox="0 0 100 125" xml:space="preserve">
    <g>
        <path d="M94.871,63.43l-2.943-19.355l-0.011-0.063c-0.965-4.93-5.239-8.504-10.314-8.499H67.137v-4.01   c-0.006-5.798-4.732-10.457-10.461-10.461H22.558c-4.745-0.001-8.932,3.212-10.117,7.882l-0.013,0.056L5.221,62.926l0.002,0.001   C5.075,63.529,5,64.134,5,64.728c0.001,1.996,0.8,3.858,2.132,5.222c1.328,1.366,3.218,2.241,5.335,2.238h3.921   c0.294,1.695,1.1,3.217,2.263,4.378c1.475,1.478,3.531,2.393,5.787,2.392c2.256,0,4.319-0.912,5.81-2.386   c0.357-0.352,0.679-0.739,0.967-1.152c0.283,0.411,0.599,0.796,0.95,1.146c1.475,1.478,3.531,2.393,5.787,2.392   c2.256,0,4.319-0.912,5.81-2.386c1.175-1.159,1.998-2.684,2.297-4.384h18.281c0.294,1.694,1.1,3.217,2.263,4.378   c1.475,1.478,3.531,2.393,5.787,2.392c2.256,0,4.319-0.912,5.81-2.386c1.175-1.159,1.998-2.684,2.297-4.384l7.05,0   c2.088,0.002,3.966-0.852,5.298-2.198C94.183,68.646,95,66.798,95,64.799c0-0.451-0.044-0.91-0.131-1.369L94.871,63.43z    M9.21,67.922c-0.817-0.838-1.307-1.981-1.306-3.194c0-0.374,0.046-0.756,0.144-1.142l0.013-0.057l7.198-33.9   c0.861-3.374,3.878-5.683,7.299-5.684h34.117c2.063,0,3.948,0.841,5.328,2.213c1.378,1.374,2.23,3.254,2.23,5.346v5.462v32.319   H46.047c-0.712-3.824-4.069-6.737-8.093-6.744c-2.265-0.001-4.322,0.936-5.793,2.428c-0.348,0.353-0.663,0.739-0.944,1.151   c-1.488-2.155-3.971-3.574-6.777-3.579c-2.265-0.001-4.322,0.936-5.794,2.428c-1.141,1.154-1.939,2.652-2.244,4.316h-3.934   C11.148,69.282,10.03,68.757,9.21,67.922z M28.208,74.506c-0.972,0.959-2.302,1.548-3.769,1.548   c-2.926-0.002-5.275-2.351-5.277-5.277c0-1.468,0.59-2.797,1.548-3.769c0.961-0.97,2.268-1.565,3.728-1.566   c1.459,0,2.787,0.598,3.763,1.572c0.974,0.976,1.572,2.304,1.572,3.763C29.773,72.238,29.178,73.545,28.208,74.506z M37.954,76.055   c-2.926-0.002-5.275-2.351-5.277-5.277c0-1.468,0.59-2.797,1.548-3.769c0.961-0.97,2.268-1.565,3.728-1.566   c1.459,0,2.787,0.598,3.763,1.572c0.941,0.943,1.525,2.216,1.565,3.616l-0.011,0.105l0.013,0.133   c-0.025,1.423-0.611,2.696-1.561,3.637C40.751,75.465,39.421,76.054,37.954,76.055z M76.162,74.506   c-0.972,0.959-2.302,1.548-3.769,1.548c-2.889-0.002-5.21-2.292-5.271-5.166l0.015-0.153v-0.376c0.101-1.3,0.661-2.472,1.527-3.351   c0.961-0.97,2.268-1.565,3.728-1.566c1.459,0,2.787,0.598,3.763,1.572c0.974,0.976,1.572,2.304,1.572,3.763   C77.727,72.238,77.132,73.545,76.162,74.506z M90.788,67.944c-0.821,0.823-1.943,1.339-3.238,1.34h-7.064   c-0.712-3.824-4.069-6.737-8.093-6.744c-2.002-0.001-3.839,0.733-5.256,1.933l0-26.056h14.466c3.689,0.006,6.738,2.55,7.462,6.141   l2.936,19.308l0.011,0.062c0.058,0.295,0.085,0.586,0.086,0.871C92.097,65.999,91.606,67.119,90.788,67.944z"/>
        <path d="M33.109,55.302c0.802,0,1.451-0.65,1.451-1.451c0-0.802-0.65-1.451-1.451-1.451v0c-1.34-0.003-2.439-0.535-3.249-1.373   c-0.805-0.839-1.281-1.984-1.279-3.155c0.001-0.748,0.187-1.508,0.614-2.25c0.401-0.694,0.163-1.582-0.531-1.983   c-0.694-0.401-1.582-0.164-1.983,0.531c-0.684,1.182-1.005,2.462-1.004,3.702c0.002,1.948,0.773,3.792,2.086,5.164   C29.073,54.407,30.963,55.306,33.109,55.302z"/>
        <path d="M42.857,52.399c-0.802,0-1.452,0.65-1.452,1.452c0,0.802,0.65,1.452,1.452,1.452c2.145,0.003,4.035-0.895,5.344-2.268   c1.313-1.372,2.085-3.216,2.086-5.164c0.001-1.24-0.32-2.52-1.003-3.702c-0.401-0.694-1.289-0.932-1.983-0.531   c-0.694,0.401-0.932,1.289-0.531,1.983l0,0c0.427,0.742,0.613,1.502,0.614,2.25c0.002,1.17-0.474,2.316-1.279,3.155   C45.296,51.864,44.197,52.396,42.857,52.399z"/>
        <path d="M32.087,37.71c0.694,0.401,1.582,0.163,1.983-0.531l0,0c0.444-0.767,1.034-1.32,1.709-1.695   c0.674-0.374,1.438-0.565,2.205-0.564c0.766,0,1.53,0.19,2.205,0.564c0.675,0.376,1.265,0.928,1.709,1.695   c0.401,0.694,1.289,0.932,1.983,0.531c0.694-0.401,0.932-1.289,0.531-1.983c-0.705-1.223-1.696-2.163-2.816-2.783   c-1.121-0.621-2.368-0.928-3.612-0.928c-1.244,0-2.491,0.307-3.612,0.928c-1.12,0.62-2.111,1.56-2.816,2.783   C31.154,36.421,31.392,37.309,32.087,37.71z"/>
    </g>
</svg>
