<svg xmlns="http://www.w3.org/2000/svg" xmlns:xlink="http://www.w3.org/1999/xlink" version="1.1" x="0px" y="0px" viewBox="0 0 100 125" enable-background="new 0 0 100 100" xml:space="preserve"><g><path fill="none" d="M40.893,54.937l0.024-0.455l0.166-0.002c-0.001-0.009-0.001-0.018-0.001-0.028   c-0.002-0.364,0.105-0.736,0.319-1.109c0.057-0.124,0.193-0.325,0.396-0.572c0.154-0.185,0.31-0.368,0.471-0.553   c0.176-0.2,0.327-0.362,0.456-0.494l0.216-0.221c0.127-0.128,0.291-0.224,0.467-0.277l-1.429-2.69l-3.002,0.094   c0.027,0.085,0.042,0.175,0.045,0.266c0.01,0.335-0.154,0.653-0.433,0.84c0.004-0.002,0.006-0.003,0.008-0.003   c0.009,0-0.028,0.042-0.074,0.095c-0.087,0.104-0.196,0.271-0.324,0.49c-0.127,0.214-0.238,0.479-0.333,0.789   c-0.087,0.282-0.129,0.61-0.126,0.977c0.002,0.29,0.026,0.474,0.046,0.577c0.028,0.146,0.078,0.311,0.149,0.49   c0.057,0.173,0.211,0.459,0.917,0.849c0.587,0.324,1.247,0.482,2.017,0.482L40.893,54.937z"/><path fill="none" d="M40.743,56.896c-0.001,0-0.002,0-0.003,0c-0.474,0-0.915-0.033-1.33-0.1l0.152,0.267   c0.31,0.548,0.535,0.958,0.672,1.225c0.08,0.16,0.137,0.28,0.17,0.363c0.217,0.458,0.421,0.868,0.609,1.231   c0.187,0.353,0.4,0.726,0.643,1.111c0.213,0.34,0.426,0.611,0.634,0.807c0.072,0.069,0.12,0.102,0.146,0.118l6.255-0.058   l-0.047-5.037L40.743,56.896z"/><path fill="none" d="M55.064,53.23c0.42,0.121,0.709,0.506,0.707,0.944l-0.004,1.188c0.847-0.008,1.559-0.014,2.133-0.02   c-0.386-0.601-1.01-1.564-1.869-2.89c-1.087-1.677-1.727-2.664-1.916-2.961c-0.142-0.222-0.189-0.492-0.129-0.749   c0.059-0.257,0.221-0.479,0.446-0.615l2.198-1.33l-6.274-0.513c-0.424-0.035-0.777-0.34-0.873-0.755   c-0.096-0.415,0.088-0.844,0.454-1.061l1.021-0.608l-0.81-1.369l-3.763,5.66c-0.281,0.424-0.841,0.563-1.289,0.314l-1.335-0.739   l2.669,5.023c0.204,0.385,0.13,0.858-0.182,1.162c-0.313,0.303-0.787,0.362-1.166,0.148l-1.219-0.695   c-0.039,0.044-0.08,0.091-0.123,0.139c-0.144,0.168-0.293,0.341-0.437,0.513c-0.138,0.167-0.173,0.236-0.175,0.239   c-0.037,0.068-0.06,0.114-0.074,0.145c0.157,0.108,0.224,0.136,0.226,0.138c0.189,0.078,0.342,0.21,0.446,0.373l5.875-0.055   c0.003,0,0.007,0,0.01,0c0.256,0,0.503,0.1,0.685,0.28c0.185,0.182,0.29,0.43,0.293,0.689l0.03,3.175l3.342-5.348   C54.194,53.281,54.643,53.109,55.064,53.23z"/><path fill="none" d="M71.413,82.065c-0.206,0-0.306,0.066-0.319,0.082l0.001,5.949v4.588c0,0.168,0.169,0.36,0.318,0.36h1.748   c0.146,0,0.308-0.188,0.308-0.36V82.171c-0.018-0.009-0.192-0.106-0.442-0.106H71.413z"/><path fill="none" d="M57.673,51.388c1.088,1.679,1.798,2.776,2.129,3.297c0.063,0.099,0.12,0.188,0.171,0.267   c0.288-0.054,0.56-0.146,0.824-0.276c0.45-0.224,0.827-0.473,1.117-0.737c0.321-0.293,0.564-0.544,0.722-0.743   c0.112-0.141,0.196-0.249,0.245-0.33c0.107-0.309,0.16-0.575,0.158-0.792c-0.001-0.13-0.021-0.177-0.021-0.178   c-0.12-0.196-0.349-0.606-0.662-1.192l-1.393-2.599c-0.255-0.468-0.48-0.882-0.67-1.236l-3.987,2.411   C56.632,49.782,57.088,50.484,57.673,51.388z"/><path fill="none" d="M28.801,82.065h-1.834c-0.226,0-0.363,0.081-0.384,0.11l0.006,10.509c0,0.168,0.168,0.36,0.316,0.36h1.748   c0.147,0,0.31-0.188,0.31-0.36v-4.588v-5.925c0-0.058-0.008-0.091-0.011-0.104C28.946,82.078,28.893,82.064,28.801,82.065z"/><path fill="none" d="M54.795,57.328c-0.004,0-0.007,0-0.01,0c-0.243,0-0.476-0.09-0.655-0.252l-1.595,2.554l1.589,2.529   c0.175-0.178,0.417-0.288,0.687-0.29l3.32-0.031c0.119-0.001,0.255-0.067,0.406-0.196c0.26-0.222,0.524-0.533,0.787-0.927   c0.288-0.432,0.555-0.89,0.794-1.363c0.252-0.499,0.577-1.173,0.972-2.024c0.051-0.105,0.101-0.209,0.15-0.31   c-0.474,0.156-0.976,0.245-1.501,0.265C59.619,57.282,57.984,57.298,54.795,57.328z"/><path fill="none" d="M53.14,43.704c0.159,0.268,0.175,0.581,0.072,0.85l3.349,0.274l1.296-2.912   c-0.075-0.005-0.149-0.017-0.222-0.038c-0.26-0.076-0.477-0.255-0.599-0.496c-0.051-0.099-0.134-0.246-0.251-0.443l-0.52-0.85   c-0.224-0.363-0.417-0.692-0.585-0.988c-0.169-0.302-0.272-0.491-0.313-0.57c0.022,0.045-0.169-0.129-0.854-0.205   c-0.676-0.076-1.726-0.115-3.121-0.115l-0.743,0.003c-0.351,0.003-0.679,0.007-0.985,0.01c0.408,0.41,0.777,0.902,1.1,1.466   L53.14,43.704z"/><path fill="none" d="M80.887,6.956H50H19.179c-0.146,0-0.284,0.162-0.284,0.333v4.383c0,0.157,0.124,0.28,0.284,0.28h1.14H50   h29.747h1.14c0.203,0,0.218-0.214,0.218-0.28V7.29C81.105,7.129,81.022,6.956,80.887,6.956z"/><path fill="none" d="M21.328,13.909l0.027,0.84c0,0.003,0.002,0.005,0.002,0.007l2.465,61.855c0.001,1.946,1.281,3.497,2.854,3.497   h4.121c0.541,0,0.978,0.438,0.978,0.978v8.331c0,0.907,1.413,1.916,3.44,1.916H50h14.853c2.021,0,3.431-1.01,3.431-1.916v-8.331   c0-0.541,0.438-0.978,0.978-0.978h4.13c1.569,0,2.844-1.551,2.844-3.457l2.25-57.05c0-0.004,0.003-0.007,0.003-0.011l0.239-5.681   H50H21.328z M51.393,36.255c1.488,0,2.58,0.041,3.339,0.126c1.186,0.133,1.955,0.526,2.348,1.206   c0.059,0.11,0.153,0.281,0.307,0.556c0.155,0.275,0.337,0.583,0.546,0.923l0.325,0.532l1.126-0.665   c0.367-0.216,0.83-0.172,1.149,0.113c0.317,0.283,0.416,0.739,0.242,1.127l-2.509,5.635l1.888-1.142   c0.459-0.275,1.052-0.135,1.336,0.318c0.062,0.099,0.205,0.358,0.431,0.778c0.208,0.39,0.463,0.861,0.764,1.413l1.396,2.603   c0.291,0.545,0.501,0.924,0.63,1.136c0.192,0.342,0.283,0.716,0.286,1.141c0.004,0.34-0.046,0.697-0.151,1.082   c0.139,0.234,0.18,0.525,0.091,0.801c-0.144,0.447-0.322,0.876-0.529,1.273c-0.185,0.363-0.431,0.808-0.735,1.331l-0.374,0.687   c-0.115,0.258-0.274,0.592-0.44,0.936c-0.399,0.862-0.734,1.555-0.994,2.069c-0.274,0.543-0.582,1.07-0.912,1.566   c-0.368,0.551-0.742,0.987-1.144,1.33c-0.511,0.436-1.068,0.659-1.658,0.664l-2.343,0.022l0.011,1.313   c0.004,0.438-0.284,0.824-0.703,0.948c-0.092,0.027-0.183,0.039-0.275,0.039c-0.331,0-0.646-0.168-0.828-0.458l-3.377-5.377   l0.024,2.537c0.005,0.541-0.429,0.983-0.969,0.988l-7.289,0.068c-0.004,0-0.011,0-0.015,0c-0.498,0-0.981-0.22-1.438-0.652   c-0.328-0.309-0.647-0.709-0.948-1.188c-0.268-0.428-0.506-0.843-0.717-1.242c-0.206-0.396-0.426-0.839-0.659-1.333   c-0.014-0.031-0.028-0.062-0.038-0.095c-0.013-0.031-0.048-0.098-0.095-0.191c-0.125-0.245-0.338-0.63-0.63-1.148l-0.864-1.523   c-0.276-0.482-0.497-0.869-0.658-1.159l-0.246-0.432c-0.047-0.074-0.09-0.149-0.128-0.225c-0.171-0.336-0.129-0.724,0.076-1.012   c-0.072-0.2-0.136-0.427-0.178-0.644c-0.051-0.267-0.078-0.581-0.08-0.931c-0.005-0.565,0.067-1.092,0.212-1.566   c0.14-0.458,0.314-0.864,0.517-1.207c0.026-0.044,0.052-0.086,0.076-0.127l-1.037-0.615c-0.374-0.222-0.557-0.664-0.449-1.085   c0.109-0.421,0.482-0.72,0.917-0.735l5.688-0.177l-2.279-1.263c-0.232-0.129-0.402-0.346-0.471-0.602s-0.031-0.528,0.105-0.756   c0.055-0.094,0.314-0.518,0.774-1.273l1.706-2.806c0.289-0.471,0.523-0.862,0.702-1.174c0.197-0.342,0.333-0.572,0.412-0.694   c0.203-0.359,0.544-0.667,0.984-0.868c0.255-0.118,0.59-0.225,1.016-0.323c0.149-0.211,0.381-0.363,0.656-0.402   c0.455-0.065,1.019-0.105,1.679-0.12c0.632-0.016,1.848-0.031,3.643-0.049L51.393,36.255z"/><path fill="none" d="M45.764,38.756c-0.209-0.028-0.385-0.047-0.525-0.053c-0.47,0.1-0.691,0.184-0.782,0.226   c-0.087,0.04-0.113,0.076-0.13,0.106c-0.097,0.153-0.217,0.356-0.388,0.652c-0.186,0.326-0.429,0.734-0.73,1.222l-1.704,2.804   c-0.087,0.142-0.167,0.273-0.24,0.393l3.991,2.212l3.562-5.356l-0.01-0.015c-0.305-0.546-0.63-0.952-0.994-1.252   c-0.375-0.31-0.746-0.534-1.099-0.668C46.232,38.846,45.931,38.78,45.764,38.756z"/><path d="M80.887,5H50H19.179c-1.235,0-2.24,1.027-2.24,2.29v4.383c0,1.233,1.005,2.236,2.24,2.236h0.191l0.031,0.99   c0,0.006,0.004,0.012,0.004,0.018l2.461,61.733c0,2.205,1.178,4.103,2.862,4.946c-0.056,0.182-0.095,0.371-0.095,0.574v10.512   c0,1.255,1.04,2.317,2.273,2.317h1.748c1.229,0,2.266-1.061,2.266-2.317v-0.9c0.978,0.921,2.522,1.508,4.295,1.508H50h14.853   c1.776,0,3.31-0.598,4.286-1.524v0.916c0,1.255,1.041,2.317,2.275,2.317h1.748c1.228,0,2.264-1.061,2.264-2.317V82.171   c0-0.201-0.04-0.389-0.097-0.57c1.684-0.84,2.863-2.732,2.862-4.912l2.246-56.938c0-0.004,0.003-0.008,0.003-0.012l0.245-5.829   h0.202c1.219,0,2.174-0.982,2.174-2.236V7.29C83.061,6.006,82.106,5,80.887,5z M28.963,88.096v4.588c0,0.172-0.162,0.36-0.31,0.36   h-1.748c-0.148,0-0.316-0.192-0.316-0.36l-0.006-10.509c0.021-0.029,0.158-0.11,0.384-0.11h1.834   c0.092-0.001,0.145,0.013,0.15,0.002c0.004,0.013,0.011,0.046,0.011,0.104V88.096z M73.469,92.683c0,0.172-0.161,0.36-0.308,0.36   h-1.748c-0.149,0-0.318-0.192-0.318-0.36v-4.588l-0.001-5.949c0.013-0.016,0.113-0.082,0.319-0.082h1.614   c0.25,0,0.424,0.097,0.442,0.106V92.683z M78.488,19.591c0,0.004-0.003,0.007-0.003,0.011l-2.25,57.05   c0,1.907-1.275,3.457-2.844,3.457h-4.13c-0.541,0-0.978,0.438-0.978,0.978v8.331c0,0.907-1.409,1.916-3.431,1.916H50H35.214   c-2.027,0-3.44-1.01-3.44-1.916v-8.331c0-0.541-0.438-0.978-0.978-0.978h-4.121c-1.573,0-2.853-1.551-2.854-3.497l-2.465-61.855   c0-0.003-0.002-0.005-0.002-0.007l-0.027-0.84H50h28.727L78.488,19.591z M81.105,11.673c0,0.066-0.015,0.28-0.218,0.28h-1.14H50   H20.319h-1.14c-0.16,0-0.284-0.123-0.284-0.28V7.29c0-0.171,0.138-0.333,0.284-0.333H50h30.887c0.135,0,0.218,0.173,0.218,0.333   V11.673z"/><path d="M45.31,36.427c-0.275,0.039-0.507,0.191-0.656,0.402c-0.425,0.098-0.76,0.204-1.016,0.323   c-0.44,0.202-0.781,0.509-0.984,0.868c-0.078,0.121-0.215,0.352-0.412,0.694c-0.18,0.312-0.413,0.703-0.702,1.174l-1.706,2.806   c-0.459,0.756-0.718,1.18-0.774,1.273c-0.136,0.227-0.174,0.5-0.105,0.756s0.239,0.473,0.471,0.602l2.279,1.263l-5.688,0.177   c-0.435,0.014-0.808,0.313-0.917,0.735c-0.108,0.421,0.075,0.864,0.449,1.085l1.037,0.615c-0.025,0.041-0.051,0.083-0.076,0.127   c-0.203,0.343-0.376,0.749-0.517,1.207c-0.145,0.474-0.217,1.001-0.212,1.566c0.002,0.351,0.03,0.664,0.08,0.931   c0.042,0.217,0.106,0.444,0.178,0.644c-0.205,0.288-0.247,0.675-0.076,1.012c0.038,0.076,0.081,0.152,0.128,0.225l0.246,0.432   c0.161,0.289,0.382,0.676,0.658,1.159l0.864,1.523c0.292,0.519,0.505,0.904,0.63,1.148c0.047,0.093,0.081,0.16,0.095,0.191   c0.01,0.033,0.024,0.064,0.038,0.095c0.233,0.494,0.453,0.936,0.659,1.333c0.211,0.399,0.449,0.814,0.717,1.242   c0.301,0.48,0.62,0.88,0.948,1.188c0.457,0.433,0.94,0.652,1.438,0.652c0.004,0,0.011,0,0.015,0l7.289-0.068   c0.54-0.005,0.974-0.447,0.969-0.988l-0.024-2.537l3.377,5.377c0.182,0.289,0.498,0.458,0.828,0.458   c0.092,0,0.183-0.012,0.275-0.039c0.419-0.123,0.707-0.51,0.703-0.948l-0.011-1.313l2.343-0.022   c0.589-0.005,1.146-0.228,1.658-0.664c0.402-0.343,0.777-0.779,1.144-1.33c0.331-0.496,0.638-1.023,0.912-1.566   c0.26-0.514,0.594-1.208,0.994-2.069c0.166-0.344,0.326-0.678,0.44-0.936l0.374-0.687c0.304-0.523,0.549-0.968,0.735-1.331   c0.207-0.397,0.385-0.826,0.529-1.273c0.089-0.276,0.049-0.567-0.091-0.801c0.105-0.385,0.155-0.742,0.151-1.082   c-0.003-0.424-0.094-0.799-0.286-1.141c-0.129-0.212-0.338-0.591-0.63-1.136l-1.396-2.603c-0.301-0.552-0.556-1.023-0.764-1.413   c-0.225-0.419-0.369-0.678-0.431-0.778c-0.284-0.453-0.877-0.593-1.336-0.318l-1.888,1.142l2.509-5.635   c0.174-0.388,0.075-0.845-0.242-1.127c-0.319-0.285-0.782-0.329-1.149-0.113l-1.126,0.665l-0.325-0.532   c-0.209-0.34-0.392-0.648-0.546-0.923c-0.154-0.275-0.247-0.446-0.307-0.556c-0.394-0.679-1.163-1.073-2.348-1.206   c-0.759-0.085-1.85-0.126-3.339-0.126l-0.761,0.003c-1.795,0.017-3.01,0.032-3.643,0.049C46.33,36.322,45.765,36.362,45.31,36.427z    M38.85,54.001c-0.706-0.391-0.86-0.676-0.917-0.849c-0.071-0.179-0.121-0.344-0.149-0.49c-0.02-0.103-0.044-0.287-0.046-0.577   c-0.003-0.367,0.039-0.695,0.126-0.977c0.096-0.31,0.206-0.575,0.333-0.789c0.128-0.219,0.237-0.386,0.324-0.49   c0.046-0.053,0.082-0.095,0.074-0.095c-0.002,0-0.004,0.001-0.008,0.003c0.279-0.187,0.442-0.504,0.433-0.84   c-0.003-0.092-0.018-0.181-0.045-0.266l3.002-0.094l1.429,2.69c-0.176,0.054-0.34,0.149-0.467,0.277l-0.216,0.221   c-0.129,0.132-0.28,0.294-0.456,0.494c-0.16,0.185-0.317,0.368-0.471,0.553c-0.203,0.247-0.338,0.448-0.396,0.572   c-0.214,0.374-0.321,0.745-0.319,1.109c0,0.01,0,0.019,0.001,0.028l-0.166,0.002l-0.024,0.455l-0.026-0.455   C40.097,54.482,39.437,54.325,38.85,54.001z M42.437,61.918c-0.026-0.015-0.075-0.049-0.146-0.118   c-0.208-0.196-0.421-0.467-0.634-0.807c-0.243-0.385-0.456-0.758-0.643-1.111c-0.188-0.363-0.393-0.774-0.609-1.231   c-0.033-0.083-0.09-0.203-0.17-0.363c-0.137-0.267-0.361-0.676-0.672-1.225l-0.152-0.267c0.415,0.067,0.856,0.1,1.33,0.1   c0.001,0,0.002,0,0.003,0l7.903-0.074l0.047,5.037L42.437,61.918z M50.622,58.999l-0.03-3.175   c-0.003-0.259-0.108-0.507-0.293-0.689c-0.182-0.18-0.429-0.28-0.685-0.28c-0.003,0-0.007,0-0.01,0l-5.875,0.055   c-0.104-0.162-0.257-0.294-0.446-0.373c-0.003-0.002-0.07-0.03-0.226-0.138c0.013-0.031,0.036-0.077,0.074-0.145   c0.002-0.003,0.037-0.072,0.175-0.239c0.143-0.172,0.292-0.345,0.437-0.513c0.043-0.048,0.084-0.095,0.123-0.139l1.219,0.695   c0.378,0.214,0.852,0.155,1.166-0.148c0.312-0.304,0.387-0.777,0.182-1.162l-2.669-5.023l1.335,0.739   c0.448,0.248,1.008,0.11,1.289-0.314l3.763-5.66l0.81,1.369l-1.021,0.608c-0.366,0.217-0.549,0.647-0.454,1.061   c0.096,0.415,0.449,0.719,0.873,0.755l6.274,0.513l-2.198,1.33c-0.225,0.137-0.387,0.358-0.446,0.615   c-0.06,0.257-0.013,0.527,0.129,0.749c0.189,0.296,0.829,1.284,1.916,2.961c0.859,1.326,1.483,2.289,1.869,2.89   c-0.574,0.006-1.286,0.012-2.133,0.02l0.004-1.188c0.002-0.438-0.287-0.823-0.707-0.944c-0.421-0.121-0.87,0.051-1.101,0.421   L50.622,58.999z M61.089,57.327c-0.395,0.851-0.719,1.526-0.972,2.024c-0.239,0.473-0.506,0.931-0.794,1.363   c-0.263,0.394-0.527,0.705-0.787,0.927c-0.151,0.129-0.287,0.195-0.406,0.196l-3.32,0.031c-0.269,0.003-0.512,0.113-0.687,0.29   l-1.589-2.529l1.595-2.554c0.18,0.162,0.413,0.252,0.655,0.252c0.003,0,0.006,0,0.01,0c3.189-0.031,4.824-0.046,4.943-0.047   c0.524-0.02,1.027-0.109,1.501-0.265C61.19,57.118,61.139,57.222,61.089,57.327z M60.294,46.868c0.19,0.354,0.415,0.768,0.67,1.236   l1.393,2.599c0.313,0.587,0.542,0.996,0.662,1.192c0,0.001,0.02,0.048,0.021,0.178c0.003,0.217-0.051,0.483-0.158,0.792   c-0.049,0.08-0.133,0.188-0.245,0.33c-0.159,0.2-0.401,0.45-0.722,0.743c-0.289,0.265-0.667,0.513-1.117,0.737   c-0.265,0.13-0.537,0.222-0.824,0.276c-0.051-0.078-0.108-0.167-0.171-0.267c-0.331-0.521-1.041-1.618-2.129-3.297   c-0.586-0.904-1.041-1.606-1.366-2.108L60.294,46.868z M50.65,38.214l0.743-0.003c1.395,0,2.445,0.038,3.121,0.115   c0.685,0.076,0.876,0.25,0.854,0.205c0.041,0.079,0.144,0.268,0.313,0.57c0.167,0.296,0.361,0.625,0.585,0.988l0.52,0.85   c0.118,0.197,0.201,0.344,0.251,0.443c0.122,0.241,0.339,0.42,0.599,0.496c0.073,0.021,0.147,0.033,0.222,0.038l-1.296,2.912   l-3.349-0.274c0.103-0.269,0.087-0.582-0.072-0.85l-2.376-4.014c-0.323-0.565-0.692-1.057-1.1-1.466   C49.97,38.221,50.299,38.217,50.65,38.214z M48.808,40.947l0.01,0.015l-3.562,5.356l-3.991-2.212   c0.073-0.119,0.153-0.25,0.24-0.393l1.704-2.804c0.301-0.488,0.544-0.896,0.73-1.222c0.171-0.296,0.29-0.5,0.388-0.652   c0.017-0.031,0.043-0.066,0.13-0.106c0.092-0.042,0.312-0.126,0.782-0.226c0.14,0.006,0.316,0.025,0.525,0.053   c0.167,0.024,0.468,0.09,0.952,0.271c0.352,0.134,0.723,0.358,1.099,0.668C48.178,39.995,48.503,40.402,48.808,40.947z"/></g></svg>