<svg xmlns="http://www.w3.org/2000/svg" xmlns:xlink="http://www.w3.org/1999/xlink" version="1.1" x="0px" y="0px" viewBox="0 0 100 125" enable-background="new 0 0 100 100" xml:space="preserve"><polygon points="35.154,36.183 40.935,39.52 42.473,38.632 36.692,35.295 "/><polygon points="43.072,38.632 48.203,41.594 49.74,40.707 44.609,37.745 "/><polygon points="36.992,35.122 42.772,38.458 44.31,37.571 38.529,34.234 "/><polygon points="33.317,37.244 39.097,40.581 40.635,39.693 34.854,36.356 "/><polygon points="31.479,38.305 37.259,41.642 38.797,40.754 33.017,37.417 "/><polygon points="36.958,41.815 31.179,38.479 29.826,39.259 35.606,42.596 "/><polygon points="59.448,48.086 64.177,50.816 65.714,49.929 60.984,47.199 "/><polygon points="69.013,53.609 73.422,56.154 74.959,55.267 70.55,52.722 "/><polygon points="64.477,50.99 68.713,53.436 70.25,52.548 66.014,50.103 "/><polygon points="79.415,57.84 75.259,55.44 73.722,56.328 77.879,58.728 "/><polygon points="42.389,44.951 37.259,41.989 35.906,42.77 41.036,45.731 "/><polygon points="48.503,41.767 53.717,44.777 55.254,43.89 50.04,40.88 "/><polygon points="82.124,61.525 77.879,59.074 76.342,59.962 80.587,62.413 "/><polygon points="54.017,44.951 59.147,47.913 60.685,47.025 55.554,44.063 "/><polygon points="76.76,66.205 75.408,66.986 75.408,67.877 76.76,67.096 "/><polygon points="76.76,67.441 75.408,68.223 75.408,69.113 76.76,68.332 "/><polygon points="76.76,64.969 75.408,65.749 75.408,66.641 76.76,65.859 "/><polygon points="80.436,70.627 77.061,68.678 77.061,69.569 80.436,71.519 "/><polygon points="78.449,63.647 74.204,61.196 72.665,62.085 76.91,64.536 "/><polygon points="80.436,69.391 77.061,67.441 77.061,68.331 80.436,70.28 "/><polygon points="76.76,68.678 75.408,69.459 75.408,70.35 76.76,69.569 "/><polygon points="53.334,51.27 48.202,48.307 46.85,49.088 51.982,52.051 "/><polygon points="62.898,56.792 58.662,54.347 57.311,55.127 61.547,57.573 "/><polygon points="58.362,54.173 53.634,51.443 52.282,52.225 57.01,54.954 "/><polygon points="47.902,48.134 42.688,45.124 41.336,45.904 46.55,48.915 "/><polygon points="67.607,59.512 63.198,56.966 61.847,57.746 66.256,60.292 "/><polygon points="72.064,62.085 67.907,59.685 66.556,60.465 70.714,62.865 "/><polygon points="85.949,69.389 84.412,70.276 84.412,71.166 85.949,70.278 "/><polygon points="41.234,39.693 46.365,42.655 47.902,41.767 42.772,38.805 "/><polygon points="51.578,46.012 46.365,43.001 44.827,43.889 50.041,46.899 "/><polygon points="77.578,58.9 73.422,56.501 71.885,57.389 76.041,59.788 "/><polygon points="62.039,52.051 57.31,49.321 55.772,50.208 60.501,52.938 "/><polygon points="57.01,49.147 51.879,46.185 50.341,47.072 55.473,50.035 "/><polygon points="68.413,53.609 64.177,51.163 62.639,52.051 66.875,54.496 "/><polygon points="66.575,54.67 62.339,52.225 60.802,53.111 65.038,55.558 "/><polygon points="71.284,57.389 66.875,54.843 65.338,55.73 69.747,58.276 "/><polygon points="80.287,62.586 76.041,60.135 74.504,61.022 78.75,63.474 "/><polygon points="84.412,72.402 85.949,71.515 85.949,70.625 84.412,71.513 "/><polygon points="73.122,56.328 68.713,53.782 67.176,54.67 71.584,57.215 "/><polygon points="75.107,67.16 73.754,67.942 73.754,68.832 75.107,68.05 "/><polygon points="73.754,70.068 75.107,69.286 75.107,68.396 73.754,69.179 "/><polygon points="75.107,65.922 73.754,66.704 73.754,67.596 75.107,66.813 "/><polygon points="85.949,68.152 84.412,69.04 84.412,69.93 85.949,69.042 "/><polygon points="69.446,58.449 65.038,55.904 63.499,56.792 67.907,59.338 "/><polygon points="55.173,50.208 50.041,47.246 48.502,48.134 53.634,51.097 "/><polygon points="57.61,49.147 62.339,51.877 63.877,50.99 59.147,48.26 "/><polygon points="64.737,55.73 60.501,53.285 58.962,54.173 63.198,56.619 "/><polygon points="73.904,61.022 69.747,58.623 68.208,59.512 72.365,61.911 "/><polygon points="75.741,59.962 71.584,57.562 70.047,58.449 74.204,60.85 "/><polygon points="60.201,53.111 55.473,50.382 53.935,51.27 58.662,54 "/><polygon points="46.665,42.828 51.879,45.838 53.416,44.951 48.203,41.94 "/><polygon points="52.179,46.012 57.31,48.974 58.848,48.086 53.717,45.124 "/><polygon points="80.436,68.154 77.061,66.205 77.061,67.095 80.436,69.044 "/><polygon points="49.741,47.072 44.527,44.062 42.988,44.951 48.202,47.961 "/><polygon points="39.397,40.754 44.527,43.716 46.064,42.828 40.935,39.867 "/><polygon points="44.227,43.889 39.097,40.927 37.559,41.815 42.688,44.777 "/><polygon points="76.61,64.709 72.365,62.258 71.014,63.038 75.258,65.489 "/><polygon points="50.177,53.267 45.046,50.303 45.046,51.193 50.177,54.156 "/><polygon points="46.25,49.088 41.036,46.078 39.682,46.859 44.896,49.87 "/><polygon points="44.745,51.367 39.532,48.357 39.532,49.247 44.745,52.257 "/><polygon points="44.745,50.129 39.532,47.12 39.532,48.011 44.745,51.021 "/><polygon points="50.177,54.503 45.046,51.541 45.046,52.43 50.177,55.393 "/><polygon points="50.177,55.739 45.046,52.776 45.046,53.667 50.177,56.63 "/><polygon points="50.177,56.977 45.046,54.014 45.046,54.903 50.177,57.867 "/><polygon points="44.745,52.603 39.532,49.593 39.532,50.484 44.745,53.494 "/><polygon points="80.436,66.917 77.061,64.969 77.061,65.858 80.436,67.808 "/><polygon points="39.231,48.184 34.103,45.222 34.103,46.112 39.231,49.073 "/><polygon points="39.231,50.657 34.103,47.696 34.103,48.585 39.231,51.549 "/><polygon points="44.745,53.841 39.532,50.831 39.532,51.723 44.745,54.73 "/><polygon points="39.231,46.946 34.103,43.985 34.103,44.875 39.231,47.837 "/><polygon points="40.735,45.904 35.606,42.943 34.252,43.725 39.382,46.686 "/><polygon points="61.246,57.746 57.01,55.3 55.655,56.082 59.893,58.528 "/><polygon points="35.306,42.77 29.525,39.433 28.171,40.215 33.952,43.551 "/><polygon points="59.742,58.788 55.506,56.342 55.506,57.233 59.742,59.679 "/><polygon points="59.742,60.025 55.506,57.58 55.506,58.47 59.742,60.915 "/><polygon points="51.682,52.225 46.55,49.261 45.195,50.043 50.327,53.007 "/><polygon points="64.451,63.98 60.043,61.436 60.043,62.326 64.451,64.871 "/><polygon points="64.451,65.218 60.043,62.673 60.043,63.562 64.451,66.107 "/><polygon points="59.742,61.262 55.506,58.816 55.506,59.706 59.742,62.152 "/><polygon points="55.205,58.643 50.478,55.913 50.478,56.804 55.205,59.533 "/><polygon points="55.205,57.406 50.478,54.677 50.478,55.566 55.205,58.296 "/><polygon points="55.205,59.879 50.478,57.15 50.478,58.041 55.205,60.771 "/><polygon points="55.205,56.169 50.478,53.439 50.478,54.33 55.205,57.06 "/><polygon points="56.71,55.127 51.982,52.397 50.627,53.18 55.355,55.909 "/><polygon points="59.742,62.499 55.506,60.053 55.506,60.944 59.742,63.389 "/><polygon points="39.231,49.419 34.103,46.458 34.103,47.35 39.231,50.311 "/><polygon points="75.559,55.267 79.716,57.667 81.069,56.885 76.913,54.485 "/><polygon points="87.787,67.091 86.25,67.979 86.25,68.868 87.787,67.98 "/><polygon points="61.285,47.025 66.014,49.756 67.368,48.974 62.639,46.244 "/><polygon points="79.716,58.014 78.179,58.9 82.425,61.353 83.962,60.465 "/><polygon points="66.314,49.929 70.55,52.375 71.904,51.594 67.668,49.147 "/><polygon points="70.851,52.548 75.259,55.094 76.613,54.312 72.204,51.767 "/><polygon points="85.799,63.647 82.425,61.699 80.887,62.586 84.262,64.535 "/><polygon points="83.962,64.708 80.587,62.76 79.05,63.647 82.425,65.596 "/><polygon points="82.124,65.769 78.75,63.82 77.21,64.709 80.586,66.657 "/><polygon points="87.639,66.83 84.262,64.881 82.725,65.769 86.101,67.718 "/><polygon points="87.787,69.563 86.25,70.451 86.25,71.341 87.787,70.453 "/><polygon points="87.787,68.327 86.25,69.215 86.25,70.104 87.787,69.217 "/><polygon points="87.787,70.8 86.25,71.688 86.25,72.579 87.787,71.691 "/><polygon points="28.943,32.597 34.854,36.01 36.392,35.122 30.481,31.709 "/><polygon points="23.614,35.673 29.525,39.086 30.878,38.305 24.968,34.893 "/><polygon points="33.802,47.522 28.021,44.185 28.021,45.076 33.802,48.412 "/><polygon points="25.268,34.719 31.179,38.132 32.717,37.244 26.806,33.831 "/><polygon points="33.802,46.285 28.021,42.947 28.021,43.839 33.802,47.176 "/><polygon points="27.106,33.658 33.017,37.07 34.554,36.183 28.644,32.771 "/><polygon points="33.802,45.049 28.021,41.711 28.021,42.601 33.802,45.938 "/><polygon points="55.854,43.89 60.984,46.852 62.339,46.07 57.208,43.108 "/><polygon points="44.91,37.571 50.04,40.533 51.395,39.752 46.264,36.79 "/><polygon points="50.341,40.707 55.554,43.717 56.908,42.935 51.694,39.925 "/><polygon points="38.83,34.061 44.609,37.398 45.964,36.616 40.184,33.279 "/><polygon points="30.782,31.536 36.692,34.948 38.229,34.061 32.319,30.648 "/><polygon points="32.619,30.475 38.529,33.887 39.883,33.105 33.973,29.693 "/><polygon points="33.802,43.811 28.021,40.475 28.021,41.365 33.802,44.702 "/><polygon points="27.721,41.538 21.812,38.126 21.812,39.015 27.721,42.427 "/><polygon points="80.016,57.84 84.262,60.292 85.616,59.51 81.369,57.059 "/><polygon points="89.625,69.739 88.088,70.627 88.088,71.519 89.625,70.631 "/><polygon points="89.625,68.503 88.088,69.391 88.088,70.28 89.625,69.393 "/><polygon points="64.451,62.744 60.043,60.199 60.043,61.089 64.451,63.634 "/><polygon points="85.766,61.006 85.634,61.082 85.766,61.158 "/><polygon points="89.625,66.03 88.088,66.918 88.088,67.808 89.625,66.92 "/><polygon points="89.625,67.267 88.088,68.154 88.088,69.044 89.625,68.156 "/><polygon points="29.226,39.259 23.314,35.847 21.961,36.628 27.871,40.042 "/><polygon points="27.721,44.012 21.812,40.6 21.812,41.49 27.721,44.902 "/><polygon points="27.721,42.773 21.812,39.362 21.812,39.652 21.812,40.253 27.721,43.665 "/><polygon points="89.476,65.77 86.1,63.82 84.562,64.708 87.938,66.657 "/><polygon points="85.766,59.77 84.562,60.465 85.334,60.909 85.766,60.659 "/><path d="M91.764,67.182v0.35v0.887v1.238c0,0.008-0.007,0.013-0.008,0.02c-0.003,0.02-0.012,0.033-0.021,0.05  c-0.011,0.018-0.019,0.032-0.035,0.045c-0.005,0.004-0.006,0.012-0.012,0.016l-7.027,4.057l2.364,0.252c0,0,0,0,0.001,0l2.434,0.155  c0.001,0,0.001,0,0.001,0c0.001,0,0.002,0,0.003,0l2.46,0.055l1.739-0.033l0.568-0.011l-0.045-1.247l-0.199-1.396l-0.349-1.387  l-0.491-1.358l-0.646-1.36l-0.737-1.249V67.182z"/><polygon points="27.721,40.301 21.812,36.889 21.812,37.779 27.721,41.191 "/><polygon points="84.111,69.039 80.736,67.09 80.736,67.98 84.111,69.93 "/><polygon points="40.483,33.105 46.264,36.443 47.617,35.662 41.837,32.324 "/><polygon points="46.563,36.616 51.694,39.579 53.048,38.797 47.917,35.835 "/><polygon points="35.626,28.739 34.272,29.52 40.184,32.933 41.536,32.151 35.721,28.793 "/><polygon points="86.066,60.486 87.418,59.705 87.418,58.814 86.066,59.596 "/><polygon points="51.994,39.752 57.208,42.762 58.562,41.98 53.348,38.971 "/><polygon points="27.808,20.733 20.842,24.755 8.711,31.758 16.974,36.528 36.07,25.503 "/><path d="M21.511,39.566v-2.938c0-0.008,0.007-0.012,0.008-0.02c0.002-0.013,0.005-0.023,0.01-0.035  c0.003-0.007-0.001-0.014,0.003-0.021c0.004-0.006,0.012-0.006,0.016-0.012c0.009-0.011,0.016-0.019,0.027-0.027  c0.005-0.004,0.006-0.013,0.012-0.016l1.653-0.955l1.653-0.954l7.352-4.244l1.653-0.955l1.653-0.955  c0.007-0.004,0.015,0,0.021-0.003c0.018-0.007,0.032-0.007,0.052-0.007c0.021,0,0.038-0.001,0.058,0.007  c0.006,0.002,0.014-0.001,0.02,0.002l0.095,0.055l0.424-0.245v-2.482L17.124,36.788v2.483l1.288-0.744  c0.013-0.007,0.026-0.002,0.04-0.005c0.013-0.003,0.021-0.015,0.035-0.015c0.007,0,0.012,0.006,0.019,0.007  c0.02,0.002,0.033,0.011,0.051,0.021c0.018,0.01,0.032,0.018,0.045,0.034c0.004,0.006,0.012,0.006,0.016,0.012  c0.007,0.012,0.002,0.025,0.005,0.038c0.004,0.013,0.016,0.023,0.016,0.038v2.567L21.511,39.566z"/><polygon points="77.213,54.312 81.369,56.712 82.723,55.93 78.566,53.53 "/><polygon points="72.504,51.594 76.913,54.139 78.267,53.357 73.857,50.812 "/><path d="M8.324,34.701c-0.017-0.012-0.024-0.027-0.035-0.045c-0.009-0.017-0.018-0.03-0.021-0.049  c-0.001-0.008-0.008-0.012-0.008-0.02v-2.829c0-0.008,0.007-0.012,0.008-0.02c0.002-0.013,0.005-0.023,0.01-0.035  c0.003-0.007-0.001-0.014,0.003-0.021c0.004-0.006,0.012-0.006,0.016-0.012c0.008-0.011,0.016-0.019,0.027-0.027  c0.005-0.004,0.006-0.013,0.012-0.016l11.961-6.906l-2.258-0.255l-3.286,0.165l-3.072,0.68l-2.623,1.141l-1.962,1.504l-1.156,1.742  l-0.277,1.842l0.616,1.818l1.476,1.667l2.021,1.246v-0.726l-1.438-0.83C8.33,34.714,8.329,34.706,8.324,34.701z"/><polygon points="57.508,42.935 62.639,45.897 63.992,45.116 58.861,42.154 "/><polygon points="81.67,56.885 85.916,59.336 87.269,58.555 83.022,56.104 "/><polygon points="67.969,48.975 72.204,51.42 73.558,50.639 69.321,48.193 "/><polygon points="62.938,46.07 67.668,48.801 69.021,48.02 64.292,45.289 "/><path d="M7.563,35.25c-0.006-0.005-0.015-0.003-0.02-0.009l-1.511-1.707c-0.006-0.006-0.003-0.016-0.008-0.022  c-0.007-0.01-0.018-0.017-0.021-0.029l-0.345-1.017v4.922l0.618,1.825l1.477,1.669l2.021,1.247v-5.504L7.577,35.27  C7.57,35.265,7.569,35.256,7.563,35.25z"/><polygon points="16.823,36.788 8.562,32.019 8.562,34.501 10,35.331 16.823,39.271 "/><polygon points="91.924,75.828 91.921,75.828 89.458,75.773 89.457,75.773 89.451,75.772 87.011,75.617 87.01,75.617 86.994,75.616   84.57,75.358 84.569,75.358 84.563,75.357 82.177,75.002 82.176,75.002 82.171,75.001 79.833,74.548 79.831,74.547 79.826,74.546   77.553,73.997 77.546,73.996 75.343,73.357 75.34,73.355 75.336,73.354 73.221,72.624 73.219,72.622 73.214,72.621 71.192,71.807   71.19,71.805 71.185,71.804 69.269,70.909 69.267,70.906 69.261,70.905 67.682,70.053 67.682,75.562 69.196,76.23 69.197,76.23   70.896,76.875 72.661,77.444 74.487,77.939 76.384,78.361 78.319,78.704 80.291,78.964 82.299,79.144 82.3,79.144 84.31,79.239   84.311,79.238 84.312,79.238 86.338,79.252 88.366,79.182 88.371,79.182 90.31,79.033 93.016,75.807 91.927,75.828 "/><path d="M70.353,69.861l-1.369-0.79l-4.457-2.574l-4.709-2.719l-4.537-2.617l-5.028-2.904L44.82,55.12l-5.514-3.182l-5.43-3.137  l-6.081-3.51l-6.21-3.586c-0.006-0.004-0.007-0.012-0.012-0.016c-0.017-0.012-0.024-0.027-0.035-0.045  c-0.009-0.017-0.018-0.03-0.021-0.049c-0.001-0.007-0.008-0.012-0.008-0.02v-1.664l-2.724,1.572l48.594,28.057v-0.963  c0-0.014,0.012-0.023,0.015-0.036c0.003-0.012-0.002-0.023,0.004-0.035c0.004-0.007,0.012-0.008,0.017-0.014  c0.012-0.017,0.026-0.025,0.044-0.036c0.018-0.01,0.031-0.018,0.051-0.021c0.008-0.002,0.013-0.009,0.021-0.009  c0.014,0,0.022,0.011,0.035,0.015c0.012,0.003,0.024-0.003,0.036,0.004l1.797,0.971L70.353,69.861z"/><polygon points="91.927,74.605 91.924,74.605 91.921,74.605 89.458,74.551 89.457,74.551 89.451,74.55 87.011,74.395 87.01,74.395   86.994,74.394 84.57,74.136 84.569,74.136 84.563,74.135 82.177,73.779 82.176,73.779 82.171,73.778 79.833,73.325 79.831,73.324   79.826,73.323 77.553,72.774 77.546,72.773 75.343,72.135 75.34,72.133 75.336,72.132 73.76,71.587 73.555,71.517 73.221,71.401   73.22,71.4 73.214,71.399 72.571,71.142 72.57,71.141 71.192,70.584 71.19,70.582 71.185,70.581 69.269,69.687 69.267,69.684   69.261,69.683 67.682,68.83 67.682,69.712 69.399,70.64 71.312,71.532 73.318,72.341 75.426,73.068 75.427,73.068 77.63,73.707   77.631,73.708 79.889,74.253 79.89,74.253 82.226,74.706 84.603,75.06 87.025,75.317 87.026,75.317 89.463,75.473 89.464,75.473   91.924,75.527 93.341,75.5 94.236,75.483 94.236,74.562 93.669,74.572 "/><path d="M18.4,41.598c-0.013-0.009-0.02-0.018-0.029-0.03c-0.003-0.005-0.011-0.003-0.014-0.008c-0.004-0.006,0-0.014-0.003-0.021  c-0.005-0.012-0.008-0.022-0.01-0.035c-0.001-0.007-0.008-0.012-0.008-0.02v-2.567l-1.288,0.744c-0.023,0.014-0.05,0.02-0.075,0.02  s-0.052-0.006-0.075-0.02l-6.823-3.94v0.821v5.771l57.306,33.086v-5.511L18.412,41.614C18.406,41.61,18.405,41.603,18.4,41.598z"/><polygon points="73.453,66.704 69.209,64.254 69.209,65.145 73.453,67.596 "/><polygon points="73.453,67.942 69.209,65.491 69.209,66.381 73.453,68.832 "/><polygon points="73.325,71.12 73.326,71.121 73.453,71.165 73.453,70.415 69.209,67.964 69.209,68.854 72.691,70.865 "/><polygon points="73.453,69.179 69.209,66.728 69.209,67.617 73.453,70.068 "/><polygon points="75.427,71.846 77.63,72.484 77.631,72.485 79.889,73.03 79.89,73.03 82.226,73.483 83.591,73.687 76.91,69.829   75.333,70.739 74.168,71.411 75.426,71.846 "/><polygon points="75.107,70.522 75.107,69.633 73.754,70.415 73.754,71.269 73.792,71.281 "/><polygon points="74.958,65.662 70.714,63.212 69.358,63.994 73.604,66.444 "/><polygon points="68.908,67.791 64.752,65.391 64.752,66.281 68.908,68.682 "/><polygon points="68.908,66.554 64.752,64.154 64.752,65.045 68.908,67.444 "/><polygon points="65.955,60.465 61.547,57.92 60.192,58.701 64.602,61.247 "/><polygon points="68.908,65.318 64.752,62.918 64.752,63.808 68.908,66.207 "/><polygon points="70.413,63.038 66.256,60.639 64.901,61.42 69.059,63.82 "/><polygon points="87.418,61.346 87.418,61.289 86.705,61.701 87.418,62.112 "/><polygon points="68.908,64.08 64.752,61.68 64.752,62.571 68.908,64.972 "/><polygon points="89.323,63.213 88.546,62.416 87.719,61.681 87.719,62.266 87.719,62.286 88.013,62.456 "/><polygon points="89.775,65.597 91.313,64.709 90.024,63.964 87.938,62.759 86.399,63.647 "/><polygon points="89.926,70.457 91.463,69.569 91.463,68.678 89.926,69.565 "/><polygon points="91.463,65.783 91.463,64.969 89.926,65.856 89.926,66.746 91.463,65.858 "/><polygon points="87.418,60.051 86.066,60.832 86.066,61.332 86.404,61.527 87.418,60.942 "/><polygon points="87.399,62.448 86.329,61.831 85.841,61.548 85.259,61.212 84.262,60.638 82.725,61.525 86.1,63.474 87.637,62.586   87.493,62.503 "/><polygon points="91.463,66.205 89.926,67.093 89.926,67.982 91.463,67.095 "/><polygon points="84.111,70.276 80.736,68.327 80.736,69.217 84.111,71.166 "/><polygon points="84.111,71.513 80.736,69.563 80.736,70.453 84.111,72.402 "/><polygon points="85.801,67.892 82.425,65.942 80.886,66.83 84.262,68.78 "/><polygon points="91.463,67.531 91.463,67.441 89.926,68.329 89.926,69.219 91.463,68.331 "/><polygon points="85.949,71.861 84.412,72.749 84.412,73.641 85.949,72.753 "/><polygon points="84.111,72.749 80.736,70.8 80.736,71.691 84.111,73.641 "/><polygon points="64.451,61.507 60.043,58.961 60.043,59.853 64.451,62.398 "/></svg>